<svg xmlns="http://www.w3.org/2000/svg" viewBox="0 0 240 118.14157"><defs><style>.a{fill:#fff;}</style></defs><title>brand-slogan_FFFFFF_240x118</title><rect class="a" y="77.10316" width="102.51322" height="0.76774"/><rect class="a" x="137.48715" y="77.10316" width="102.51285" height="0.76774"/><path class="a" d="M121.20449,60.9175a2.35369,2.35369,0,0,1,.24126-.01026,1.59975,1.59975,0,0,0,1.792-1.219,1.96405,1.96405,0,0,1,2.25059-1.55184,5.88017,5.88017,0,0,1,1.97417.34682,22.63457,22.63457,0,0,0,8.27038,1.61116c3.18366.10238,6.36848.16833,9.55277.25116.10552.00274.21074.01663.31755.02544-.30592,2.04652-1.98195,3.02328-4.76056,2.77215-.01713.09868-.04368.2-.05117.30268a1.85212,1.85212,0,0,1-1.62628,1.85393,11.58571,11.58571,0,0,1-1.89082.07347c-.21949-.00073-.33951.00308-.42019.25209a3.43926,3.43926,0,0,1-4.70153,2.195,15.72869,15.72869,0,0,1-1.47853-.78559.64118.64118,0,0,0-.10409.12244,4.64079,4.64079,0,0,1-3.97647,2.44223,16.90815,16.90815,0,0,1-5.04609-.482.47436.47436,0,0,1-.43653-.56082c.03263-2.48208.04246-4.96447.06092-7.44675A1.39574,1.39574,0,0,1,121.20449,60.9175Z"/><path class="a" d="M117.49018,60.94608c0,.23272-.00042.4509.00006.66908q.0077,3.4952.01808,6.9904c.00092.233.00047.43709-.29079.49985a14.85082,14.85082,0,0,1-5.93731.37132,4.39919,4.39919,0,0,1-3.1985-2.32174,1.698,1.698,0,0,0-.12424-.16691,4.29937,4.29937,0,0,1-3.65012,1.00778,3.33232,3.33232,0,0,1-2.5862-2.58412c-.48071,0-.94511.0184-1.40763-.0033-1.67985-.07882-2.26708-.61307-2.49363-2.28427a3.809,3.809,0,0,1-3.75215-.85142,3.7488,3.7488,0,0,1-1.03621-1.94453c1.16692,0,2.28373.0403,3.39675-.00763,3.20692-.13811,6.4146-.27669,9.61739-.4855a15.81945,15.81945,0,0,0,5.04928-1.33889,4.92708,4.92708,0,0,1,2.95851-.26912,1.45436,1.45436,0,0,1,1.19587,1.06346,4.04414,4.04414,0,0,0,.24836.61122,1.623,1.623,0,0,0,1.6913,1.00145,1.14642,1.14642,0,0,1,.1653.00022A.87067.87067,0,0,1,117.49018,60.94608Z"/><path class="a" d="M117.766,87.56638c-.59987.24987-1.21108.46332-1.78349.75334-.71125.36036-1.38661.791-2.08706,1.17373-.12121.06623-.34535.11727-.42808.05351a17.39685,17.39685,0,0,1-2.03471-1.669,3.99939,3.99939,0,0,1-.71381-4.07961,6.77815,6.77815,0,0,1,3.30479-4.0668,10.92475,10.92475,0,0,1,5.53069-1.44888,20.18122,20.18122,0,0,0,7.50138-1.46949,7.27344,7.27344,0,0,0,1.4364-.87632,1.43537,1.43537,0,0,0,.27277-1.48784.60749.60749,0,0,0-.39255-.25,2.0424,2.0424,0,0,0-1.8149.45428,3.81542,3.81542,0,0,1-3.937.75977,1.15487,1.15487,0,0,1-.94575-1.35057,3.40468,3.40468,0,0,1,3.02639-3.20805,10.9554,10.9554,0,0,1,5.43269.725,3.82725,3.82725,0,0,1,1.65779,5.61174,8.44518,8.44518,0,0,1-2.84428,2.71857,16.15256,16.15256,0,0,1-7.00427,2.306c-1.601.15967-3.19982.37335-4.7844.65a1.77544,1.77544,0,0,0-1.66839,1.3863,2.45984,2.45984,0,0,0,.944,2.49452A13.2993,13.2993,0,0,0,117.766,87.56638Z"/><path class="a" d="M118.12812,96.23839c-.66135.26508-1.30553.47543-1.90345.77736-.52387.26454-.99232.63754-1.49344.94947-.10833.06744-.29954.15185-.37169.10469a5.21408,5.21408,0,0,1-2.33934-2.68534,3.628,3.628,0,0,1,.83558-3.61175,9.59749,9.59749,0,0,1,3.636-2.59545c.95563-.42017,1.9493-.75643,2.93468-1.1056a6.27851,6.27851,0,0,0,3.10511-1.86256,3.0776,3.0776,0,0,0,.55658-1.30166,1.73306,1.73306,0,0,0-1.04241-1.83715,13.23774,13.23774,0,0,0,4.976-1.21959,5.12945,5.12945,0,0,1,.99609,2.525c.30356,2.09927-.70508,3.54-2.31633,4.67942a17.26359,17.26359,0,0,1-4.47287,2.10157c-1.19565.40956-2.37418.86909-3.5603,1.30647a.26017.26017,0,0,0-.03808.01594c-1.57341.88711-1.61061,2.45055-.07991,3.42626C117.72337,96.01574,117.906,96.111,118.12812,96.23839Z"/><path class="a" d="M118.2014,77.487c0-.40645.00152-.74789-.00023-1.08932q-.03044-5.935-.06272-11.87c-.01106-1.83327-.03838-3.66646-.04314-5.49972a.49277.49277,0,0,0-.32138-.49259,3.20751,3.20751,0,0,1,.39339-5.89563,3.25549,3.25549,0,0,1,2.78754,5.84894.677.677,0,0,0-.39653.66856c-.00385,2.37124-.03367,4.74243-.04785,7.11367q-.0319,5.33542-.04675,10.67091c-.00053.33962-.09688.45536-.43647.45754C119.45053,77.403,118.87409,77.45205,118.2014,77.487Z"/><path class="a" d="M118.30539,96.23576c0-1.0636-.00921-2.02819.01163-2.99212a.47618.47618,0,0,1,.25551-.34652c.82479-.30863,1.66211-.58349,2.492-.8788,1.06358-.37848,2.128-.75523,3.18257-1.15778a.4569.4569,0,0,1,.57181.11254,4.523,4.523,0,0,1,1.08317,5.56807,4.37359,4.37359,0,0,1-2.31248,2.03809c-1.43493.56521-2.90435,1.04225-4.34933,1.58292a7.48937,7.48937,0,0,0-1.37122.66613,1.19622,1.19622,0,0,0-.34948,1.8781c.04447.06648.09013.13217.11163.16366l-2.63929,1.69391a3.036,3.036,0,0,1-1.19362-3.70624,4.61383,4.61383,0,0,1,2.69647-3.01115c.986-.4507,2.04144-.747,3.04538-1.1618a12.04432,12.04432,0,0,0,2.10223-1.03907,1.27554,1.27554,0,0,0,.14163-2.25613,12.07327,12.07327,0,0,0-1.30061-.90529l-.13249.08143c0,.79319-.02167,1.58722.009,2.37922.01559.402-.08772.63008-.49879.74424C119.36074,95.82816,118.87807,96.03107,118.30539,96.23576Z"/><path class="a" d="M115.92147,77.89159a20.44747,20.44747,0,0,0-2.31643,1.047,23.94128,23.94128,0,0,0-2.05751,1.569c-.112.08509-.30492.1959-.39747.1544a10.21352,10.21352,0,0,1-3.90277-2.7769,4.26387,4.26387,0,0,1-.86234-4.32521,3.51917,3.51917,0,0,1,1.97409-2.06051,10.22684,10.22684,0,0,1,5.74808-.71121,3.37853,3.37853,0,0,1,2.7856,3.29738,1.06763,1.06763,0,0,1-.73539,1.12941,3.728,3.728,0,0,1-3.96306-.52175,2.28537,2.28537,0,0,0-1.92528-.62754.56111.56111,0,0,0-.56311.57332,1.48214,1.48214,0,0,0,.98438,1.67912c1.06467.439,2.15717.81828,3.25724,1.16059A19.7108,19.7108,0,0,0,115.92147,77.89159Z"/><path class="a" d="M120.36021,100.88319c.2577.9497-.40927,1.21368-1.03055,1.50059-.3111.14366-.63658.25621-1.06626.42678,0-.502-.02522-.93465.0173-1.36056.011-.10985.22031-.2373.36318-.2906,1.05727-.39441,2.12018-.77376,3.18252-1.15448.67315-.24124,1.34837-.47669,2.06133-.72838a4.433,4.433,0,0,1,.56523,2.36954,4.237,4.237,0,0,1-3.37934,4.36783c-.7789.23031-1.572.412-2.35467.63028-.87236.24331-.96409.374-.96285,1.26157.00058.4138.01611.8287-.01046,1.24081a.62494.62494,0,0,1-.1995.40382c-.59367.482-.63611.51152-1.18653-.02457a7.92125,7.92125,0,0,1-1.35732-1.63293,1.99537,1.99537,0,0,1,.29507-2.41667,7.35088,7.35088,0,0,1,2.50658-1.78672c.889-.4361,1.8-.83026,2.67044-1.3a.77566.77566,0,0,0,.35-1.18589c-.077-.14383-.14548-.29218-.21787-.43845Z"/><path class="a" d="M120.49119,107.62609l-2.07537,1.52213-.11088-.092c0-.46363-.01949-.92873.01515-1.38976.00765-.1018.19265-.23833.32024-.27542.95137-.2766,1.91567-.51,2.86227-.80128a4.83448,4.83448,0,0,0,2.12834-1.1791,1.39422,1.39422,0,0,1,.5488,1.14487,3.02652,3.02652,0,0,1-1.53417,2.79628,26.94442,26.94442,0,0,1-2.99582,1.56607c-1.67879.76477-3.3826,1.47541-5.08633,2.18368a2.3995,2.3995,0,0,1-.764.04932c.13241-.22018.21249-.51808.4056-.64812,1.40377-.94521,2.83433-1.85052,4.24775-2.78162.59649-.39294,1.19044-.7945,1.74913-1.238C120.46963,108.27058,120.71072,107.96552,120.49119,107.62609Z"/><path class="a" d="M120.49092,111.69228c-.1689,1.94226-.33179,3.8494-.50262,5.75583-.04246.47381-.26961.70124-.65114.69326-.35223-.00737-.56823-.23754-.60832-.69948-.14174-1.63323-.26886-3.26773-.41232-4.90079-.026-.2963.08919-.42635.35819-.544,1.07283-.46934,2.12957-.97535,3.19873-1.45331a.47824.47824,0,0,1,.39975.0021c.77121.57738,1.5277,1.1745,2.284,1.77152a.97546.97546,0,0,1,.24076.27973c.04922.08743.10472.24108.06436.29286a.37559.37559,0,0,1-.30818.12523,13.65861,13.65861,0,0,1-1.5165-.3838C122.16727,112.33584,121.31147,111.9974,120.49092,111.69228Z"/><path class="a" d="M120.40376,83.15658v2.53311c0,1.06151.0005,1.063-1.01919,1.41014-.33687.11468-.67708.21957-1.08707.352-.01569-.26494-.03843-.48955-.04067-.71435-.00977-.97779-.00532-1.95581-.02485-2.93337-.00547-.274.0774-.393.35883-.42064C119.18844,83.32464,119.78315,83.23609,120.40376,83.15658Z"/><path class="a" d="M19.18084,2.55683H15.87069V.295h9.17768V2.55683H21.73748v9.34169H19.18084Z"/><path class="a" d="M26.34169.295h2.55665v4.3268h4.96634V.295h2.55665v11.6035H33.86468V6.88345H28.89834v5.01507H26.34169Z"/><path class="a" d="M38.8775.295h7.88286v2.36H41.43415v2.1634h5.03157v2.36H41.43415v2.36h5.62162v2.36H38.8775Z"/><path class="a" d="M53.95346.295h4.3268c2.03182,0,4.24433.42623,4.24433,2.95008A2.61133,2.61133,0,0,1,60.525,5.80175v.0328a2.77987,2.77987,0,0,1,2.54015,2.83536c0,2.42563-2.29423,3.22861-4.359,3.22861H53.95346ZM56.5101,4.93316H58.362c.78649,0,1.606-.32783,1.606-1.262,0-.9668-.91769-1.21272-1.72067-1.21272H56.5101Zm0,4.802h2.29423c.803,0,1.70418-.34413,1.70418-1.36023,0-1.098-1.22884-1.27832-2.06481-1.27832H56.5101Z"/><path class="a" d="M64.67038.295h7.88286v2.36H67.227v2.1634h5.03157v2.36H67.227v2.36h5.62162v2.36H64.67038Z"/><path class="a" d="M78.71393.295h2.11429l5.04806,11.6035H82.992L81.99183,9.44009H77.48509l-.96718,2.45843H73.69886Zm.98367,3.37612L78.28807,7.27688h2.83555Z"/><path class="a" d="M94.62661,3.31071A2.73948,2.73948,0,0,0,92.42984,2.36a3.45447,3.45447,0,0,0-3.35963,3.73675,3.44276,3.44276,0,0,0,3.2779,3.73675A2.77628,2.77628,0,0,0,94.74132,8.588l2.13,1.58966a5.06277,5.06277,0,0,1-4.1956,2.01589c-3.622,0-6.26041-2.37652-6.26041-6.09677S89.05372,0,92.67576,0A4.982,4.982,0,0,1,96.5932,1.70456Z"/><path class="a" d="M103.901,0c3.622,0,6.26041,2.37652,6.26041,6.09677s-2.63837,6.09677-6.26041,6.09677S97.63985,9.817,97.63985,6.09677,100.279,0,103.901,0Zm0,9.83352a3.50268,3.50268,0,0,0,3.60554-3.73675,3.60785,3.60785,0,1,0-7.21109,0A3.50227,3.50227,0,0,0,103.901,9.83352Z"/><path class="a" d="M111.89633.295h3.47434L120.304,8.35839h.033V.295h2.55665v11.6035h-3.34388L114.486,3.63835h-.033v8.26018h-2.55665Z"/><path class="a" d="M135.73986,0c3.622,0,6.26041,2.37652,6.26041,6.09677s-2.63837,6.09677-6.26041,6.09677-6.26116-2.37652-6.26116-6.09677S132.11782,0,135.73986,0Zm0,9.83352a3.50268,3.50268,0,0,0,3.60554-3.73675,3.60785,3.60785,0,1,0-7.21109,0A3.50227,3.50227,0,0,0,135.73986,9.83352Z"/><path class="a" d="M143.83341.295h7.78465v2.36h-5.228v2.36h4.83513v2.36h-4.83513v4.52342h-2.55665Z"/><path class="a" d="M158.30282.295h4.31031c2.40894,0,4.40853.77037,4.40853,3.52363,0,2.72065-1.85188,3.55644-4.29381,3.55644h-1.86838v4.52342h-2.55665Zm2.55665,4.91667h1.70493c.9012,0,1.8024-.31133,1.8024-1.393,0-1.19641-1.21234-1.36023-2.196-1.36023h-1.31131Z"/><path class="a" d="M170.93759.295h2.11429l5.04806,11.6035h-2.88429L174.2155,9.44009h-4.50674l-.96718,2.45843h-2.81906Zm.98367,3.37612-1.40953,3.60573h2.83555Z"/><path class="a" d="M179.99906,2.55683h-3.31014V.295h9.17768V2.55683h-3.31089v9.34169h-2.55665Z"/><path class="a" d="M187.12693.295h2.55665v11.6035h-2.55665Z"/><path class="a" d="M192.109.295h7.88286v2.36h-5.32622v2.1634h5.03157v2.36h-5.03157v2.36h5.62162v2.36H192.109Z"/><path class="a" d="M202.33409.295h3.47434l4.93335,8.06337h.033V.295h2.55665v11.6035h-3.34388l-5.06381-8.26018h-.033v8.26018h-2.55665Z"/><path class="a" d="M217.93413,2.55683H214.624V.295h9.17768V2.55683h-3.31089v9.34169h-2.55665Z"/><path class="a" d="M6.60454,27.71055a2.47416,2.47416,0,0,0-1.85188-.77037c-.72126,0-1.72067.32783-1.72067,1.19641,0,2.11429,5.34271.75387,5.34271,4.81845,0,2.58945-2.0813,3.81866-4.47375,3.81866A5.51051,5.51051,0,0,1,0,35.31507l1.81889-1.99939a2.84409,2.84409,0,0,0,2.229,1.098c.836,0,1.77016-.39343,1.77016-1.21272,0-2.1306-5.44093-.98348-5.44093-4.85125,0-2.47474,2.14653-3.76955,4.425-3.76955a5.244,5.244,0,0,1,3.55606,1.21291Z"/><path class="a" d="M14.093,24.87518h2.11429l5.04806,11.6035H18.37111l-1.00017-2.45843H12.8642L11.897,36.47868H9.078Zm.98367,3.37612L13.66718,31.857h2.83555Z"/><path class="a" d="M22.51572,24.87518h7.78465v2.36h-5.228v2.36h4.83438v2.36H25.07237v4.52342H22.51572Z"/><path class="a" d="M32.23247,24.87518h7.88361v2.36h-5.327v2.1634h5.03157v2.36H34.78912v2.36h5.62162v2.36H32.23247Z"/><path class="a" d="M44.70305,27.137H41.39291V24.87518h9.17768V27.137H47.2597v9.34169H44.70305Z"/><path class="a" d="M54.716,31.52921l-4.35979-6.654h3.17969l2.45843,4.34311,2.60538-4.34311h3.032l-4.359,6.654v4.94947H54.716Z"/><path class="a" d="M67.3005,24.87518h2.55665v11.6035H67.3005Z"/><path class="a" d="M72.18361,24.87518H75.658l4.93335,8.06337h.033V24.87518h2.55665v11.6035H79.83705L74.77325,28.2185h-.033v8.26018H72.18361Z"/><path class="a" d="M90.389,24.87518h3.47434l4.93335,8.06337h.033V24.87518h2.55665v11.6035H98.04247L92.97866,28.2185h-.033v8.26018H90.389Z"/><path class="a" d="M109.38168,24.58016c3.622,0,6.26116,2.37652,6.26116,6.09677s-2.63912,6.09677-6.26116,6.09677-6.26041-2.37652-6.26041-6.09677S105.75964,24.58016,109.38168,24.58016Zm0,9.83352a3.50227,3.50227,0,0,0,3.60554-3.73675,3.60785,3.60785,0,1,0-7.21109,0A3.50268,3.50268,0,0,0,109.38168,34.41368Z"/><path class="a" d="M117.37775,24.87518H121.868c2.37671,0,4.37629.81948,4.37629,3.52363a2.98724,2.98724,0,0,1-2.50791,3.1795l2.95026,4.90036h-3.065l-2.42544-4.63814H119.9344v4.63814h-2.55665Zm2.55665,4.802h1.50775c.93419,0,2.14653-.03261,2.14653-1.29463,0-1.16361-1.0489-1.34393-1.98309-1.34393H119.9344Z"/><path class="a" d="M129.94655,27.137h-3.31014V24.87518h9.17768V27.137h-3.31089v9.34169h-2.55665Z"/><path class="a" d="M137.1074,24.87518H139.664V29.202h4.96634v-4.3268H147.187v11.6035h-2.55665V31.4636H139.664v5.01507H137.1074Z"/><path class="a" d="M161.98334,27.89086a2.73792,2.73792,0,0,0-2.196-.95068,3.454,3.454,0,0,0-3.35963,3.73675,3.44231,3.44231,0,0,0,3.2779,3.73675,2.774,2.774,0,0,0,2.39245-1.24552l2.13079,1.58966a5.0647,5.0647,0,0,1-4.1956,2.01589c-3.622,0-6.26116-2.37652-6.26116-6.09677s2.63912-6.09677,6.26116-6.09677a4.97952,4.97952,0,0,1,3.91669,1.70456Z"/><path class="a" d="M169.43884,24.87518h2.11429l5.04731,11.6035h-2.88429l-.99942-2.45843h-4.50749l-.96643,2.45843h-2.81906Zm.98292,3.37612L169.013,31.857h2.8348Z"/><path class="a" d="M177.76256,24.87518h4.491c2.376,0,4.37554.81948,4.37554,3.52363a2.98665,2.98665,0,0,1-2.50716,3.1795l2.94951,4.90036h-3.06423L181.581,31.84054h-1.26183v4.63814h-2.55665Zm2.55665,4.802H181.827c.93419,0,2.14728-.03261,2.14728-1.29463,0-1.16361-1.0489-1.34393-1.98309-1.34393h-1.67194Z"/><path class="a" d="M194.01937,24.58016c3.622,0,6.26041,2.37652,6.26041,6.09677s-2.63837,6.09677-6.26041,6.09677-6.26116-2.37652-6.26116-6.09677S190.39734,24.58016,194.01937,24.58016Zm0,9.83352a3.50268,3.50268,0,0,0,3.60554-3.73675,3.60785,3.60785,0,1,0-7.21109,0A3.50227,3.50227,0,0,0,194.01937,34.41368Z"/><path class="a" d="M202.11292,24.87518h2.55665v9.24347h4.73692v2.36h-7.29356Z"/><path class="a" d="M210.78152,24.87518h2.55665v11.6035h-2.55665Z"/><path class="a" d="M215.66464,24.87518H219.139l4.93335,8.06337h.033V24.87518H226.662v11.6035h-3.34388l-5.06381-8.26018h-.033v8.26018h-2.55665Z"/><path class="a" d="M232.83839,24.87518h2.11429L240,36.47868h-2.88429l-.99942-2.45843h-4.50749l-.96643,2.45843h-2.81906Zm.98292,3.37612L232.41254,31.857h2.8348Z"/></svg>