<svg xmlns="http://www.w3.org/2000/svg" viewBox="0 0 220 47.04276"><defs><style>.a{fill:#e6e5e2;}.b{fill:#fff;}</style></defs><title>logo-wordmark_ffffff_220x48</title><path class="a" d="M0,.92017H1.30346l6.61008,9.50845h.03068V.92017h1.0122V11.77828H7.65278L1.04288,2.26965H1.0122v9.50863H0Z"/><path class="a" d="M16.83929.64406a5.4362,5.4362,0,0,1,5.613,5.70507,5.4361,5.4361,0,0,1-5.613,5.70507,5.43614,5.43614,0,0,1-5.61322-5.70507A5.43624,5.43624,0,0,1,16.83929.64406Zm0,10.49a4.48486,4.48486,0,0,0,4.60083-4.7849,4.485,4.485,0,0,0-4.60083-4.7849,4.4851,4.4851,0,0,0-4.601,4.7849A4.485,4.485,0,0,0,16.83929,11.134Z"/><path class="a" d="M24.72215.92017h2.85253c.85881,0,3.86474,0,3.86474,2.85253,0,2.07042-1.57975,2.63779-2.77584,2.79118l3.15913,5.2144H30.67265l-3.05194-5.153H25.73435v5.153h-1.0122Zm1.0122,4.7849h2.14712c2.13159,0,2.54575-1.18093,2.54575-1.93237s-.41416-1.93237-2.54575-1.93237H25.73435Z"/><path class="a" d="M36.316,1.84033H32.60465V.92017h8.43489v.92017H37.32819v9.93795H36.316Z"/><path class="a" d="M42.71114.92017h1.0122v4.7849h6.07321V.92017h1.0122V11.77828h-1.0122v-5.153H43.72334v5.153h-1.0122Z"/><path class="a" d="M66.71216,10.07581A4.71853,4.71853,0,0,1,62.6787,12.0542a5.4361,5.4361,0,0,1-5.613-5.70507A5.4362,5.4362,0,0,1,62.6787.64406a4.51934,4.51934,0,0,1,3.742,1.70228l-.82813.69026A3.4622,3.4622,0,0,0,62.6787,1.56423a4.485,4.485,0,0,0-4.60083,4.7849A4.48486,4.48486,0,0,0,62.6787,11.134,3.91371,3.91371,0,0,0,65.884,9.44709Z"/><path class="a" d="M71.8957.92017h1.04288l4.57034,10.85811H76.374L75.19307,8.89507H69.442l-1.227,2.88321H67.15682Zm.47551,1.10424-2.5306,5.9505h4.98431Z"/><path class="a" d="M79.07315.92017h2.85253c.85881,0,3.86474,0,3.86474,2.85253,0,2.07042-1.57975,2.63779-2.77584,2.79118l3.15913,5.2144H85.02364l-3.05194-5.153H80.08535v5.153h-1.0122Zm1.0122,4.7849h2.14712c2.13159,0,2.54575-1.18093,2.54575-1.93237s-.41416-1.93237-2.54575-1.93237H80.08535Z"/><path class="a" d="M93.07505.64406a5.4362,5.4362,0,0,1,5.613,5.70507,5.61387,5.61387,0,1,1-11.22625,0A5.43624,5.43624,0,0,1,93.07505.64406Zm0,10.49a4.48486,4.48486,0,0,0,4.60083-4.7849,4.60446,4.60446,0,1,0-9.20185,0A4.485,4.485,0,0,0,93.07505,11.134Z"/><path class="a" d="M100.95792.92017h1.0122v9.93795h5.061v.92017h-6.07321Z"/><path class="a" d="M108.626.92017h1.0122V11.77828H108.626Z"/><path class="a" d="M112.6133.92017h1.30365l6.6099,9.50845h.03068V.92017h1.0122V11.77828h-1.30365l-6.6099-9.50863h-.03068v9.50863h-1.0122Z"/><path class="a" d="M127.873.92017h1.04288l4.57015,10.85811h-1.13492l-1.18093-2.88321h-5.75109l-1.22677,2.88321h-1.05822Zm.47533,1.10424-2.53041,5.9505h4.98431Z"/><path class="a" d="M139.329,9.76921a2.74452,2.74452,0,0,0,2.48458,1.36482,2.21067,2.21067,0,0,0,2.43838-2.13159c0-3.0366-5.59769-1.25763-5.59769-5.38313,0-1.93237,1.65626-2.97525,3.48144-2.97525a3.52877,3.52877,0,0,1,2.95972,1.365l-.87415.62872A2.43337,2.43337,0,0,0,142.105,1.56423c-1.30365,0-2.43856.67474-2.43856,2.05508,0,3.26669,5.59769,1.30365,5.59769,5.38313a3.109,3.109,0,0,1-3.37388,3.05176,4.079,4.079,0,0,1-3.52746-1.64092Z"/><path class="a" d="M152.47209.64406a5.43624,5.43624,0,0,1,5.61322,5.70507,5.61387,5.61387,0,1,1-11.22625,0A5.4362,5.4362,0,0,1,152.47209.64406Zm0,10.49a4.4849,4.4849,0,0,0,4.601-4.7849,4.60446,4.60446,0,1,0-9.20185,0A4.48486,4.48486,0,0,0,152.47209,11.134Z"/><path class="a" d="M169.296,10.07581a4.71853,4.71853,0,0,1-4.03347,1.97839,5.4361,5.4361,0,0,1-5.613-5.70507,5.4362,5.4362,0,0,1,5.613-5.70507,4.51969,4.51969,0,0,1,3.74221,1.70228l-.82813.69026a3.46275,3.46275,0,0,0-2.91408-1.47238,4.485,4.485,0,0,0-4.60083,4.7849,4.48486,4.48486,0,0,0,4.60083,4.7849,3.91371,3.91371,0,0,0,3.20534-1.68694Z"/><path class="a" d="M171.15171.92017h1.0122V11.77828h-1.0122Z"/><path class="a" d="M175.139.92017h6.64076v.92017h-5.62856V5.70507h5.27576v.92017h-5.27576v4.23288h5.8738v.92017h-6.886Z"/><path class="a" d="M186.64115,1.84033H182.9298V.92017h8.43489v.92017h-3.71134v9.93795h-1.0122Z"/><path class="a" d="M195.444,7.10075,191.45654.92017h1.21161l3.282,5.153,3.35854-5.153h1.13492l-3.98745,6.18058v4.67753H195.444Z"/><path class="a" d="M209.91476,4.5088a3.06281,3.06281,0,0,1,3.2033,3.72668,4.25879,4.25879,0,0,1-4.25025,3.72687,3.06285,3.06285,0,0,1-3.20312-3.72687A4.25873,4.25873,0,0,1,209.91476,4.5088Zm-.93052,6.62524a3.25547,3.25547,0,0,0,3.21365-2.89855,2.34284,2.34284,0,0,0-2.39938-2.89855,3.25562,3.25562,0,0,0-3.21365,2.89855A2.34277,2.34277,0,0,0,208.98425,11.134Z"/><path class="a" d="M216.07576,5.521h-1.47238l.11643-.82813H216.192l.32526-2.31585A2.48527,2.48527,0,0,1,218.96765,0,2.38588,2.38588,0,0,1,220,.18407l-.29606.79745a1.67777,1.67777,0,0,0-.80651-.15339c-.84366,0-1.32841.61338-1.50731,1.88635l-.278,1.97839h1.65645l-.11643.82813h-1.65626l-.879,6.25728h-.92017Z"/><path class="b" d="M8.10139,21.94449h3.41524l8.15427,18.74416H15.01142L13.39634,36.7175H6.1157l-1.562,3.97115H0Zm1.58841,5.45381L7.41306,33.22271h4.58017Z"/><path class="b" d="M21.04711,27.82178h3.81252v1.74751h.05288A4.17246,4.17246,0,0,1,28.67192,27.504c4.02426,0,4.76547,2.64759,4.76547,6.08927v7.09533H29.46624v-6.301c0-1.48266-.02644-3.3888-2.065-3.3888-2.06524,0-2.383,1.61508-2.383,3.28281v6.407H21.04711Z"/><path class="b" d="M48.42168,38.46477a6.98986,6.98986,0,0,1-5.42737,2.5416c-3.97115,0-7.14821-2.64759-7.14821-6.75116S39.02316,27.504,42.99431,27.504c3.70653,0,6.03639,2.64759,6.03639,6.75116v1.24448H39.81748A2.96639,2.96639,0,0,0,42.809,37.98818a3.3887,3.3887,0,0,0,2.83289-1.562Zm-3.36213-5.66555a2.38023,2.38023,0,0,0-2.43585-2.43585,2.64931,2.64931,0,0,0-2.80622,2.43585Z"/><path class="b" d="M58.71981,31.60786a2.83571,2.83571,0,0,0-2.30319-1.08561c-.6619,0-1.45622.29129-1.45622,1.05894,0,1.90637,6.69828.29129,6.69828,5.18919,0,3.28281-3.17706,4.236-5.9304,4.236a7.08168,7.08168,0,0,1-5.05676-1.74728l2.40917-2.674a3.44987,3.44987,0,0,0,2.80645,1.40311c.90008,0,1.80016-.23818,1.80016-.92652,0-2.065-6.69805-.31773-6.69805-5.21563,0-3.01819,2.70047-4.342,5.40093-4.342a6.499,6.499,0,0,1,4.76547,1.6944Z"/><path class="b" d="M72.46008,30.99884H68.96553v4.28888c0,1.37667.15886,2.38274,1.8797,2.38274a2.856,2.856,0,0,0,1.61485-.37061v3.30948a8.22235,8.22235,0,0,1-2.77978.397c-2.64759,0-4.68616-1.08538-4.68616-3.89183v-6.1157h-2.5416V27.82178h2.5416V24.00949h3.97138v3.81228h3.49456Z"/><path class="b" d="M78.44313,20.67357v8.89572H78.496A3.72127,3.72127,0,0,1,82.09678,27.504c4.024,0,4.76547,2.64759,4.76547,6.08927v7.09533H82.89087v-6.301c0-1.48266-.02644-3.3888-2.065-3.3888-2.065,0-2.38274,1.61508-2.38274,3.28281v6.407H74.472V20.67357Z"/><path class="b" d="M101.84654,38.46477a6.99055,6.99055,0,0,1-5.42737,2.5416c-3.97138,0-7.14821-2.64759-7.14821-6.75116S92.44779,27.504,96.41917,27.504c3.70653,0,6.03616,2.64759,6.03616,6.75116v1.24448H93.24211a2.9668,2.9668,0,0,0,2.99176,2.48849,3.38829,3.38829,0,0,0,2.83266-1.562Zm-3.36236-5.66555a2.38017,2.38017,0,0,0-2.43561-2.43585,2.64953,2.64953,0,0,0-2.80645,2.43585Z"/><path class="b" d="M112.14467,31.60786a2.83616,2.83616,0,0,0-2.30342-1.08561c-.6619,0-1.456.29129-1.456,1.05894,0,1.90637,6.69805.29129,6.69805,5.18919,0,3.28281-3.17683,4.236-5.9304,4.236a7.0824,7.0824,0,0,1-5.05676-1.74728l2.40941-2.674a3.44912,3.44912,0,0,0,2.80622,1.40311c.90031,0,1.80039-.23818,1.80039-.92652,0-2.065-6.69828-.31773-6.69828-5.21563,0-3.01819,2.70046-4.342,5.40093-4.342a6.499,6.499,0,0,1,4.76547,1.6944Z"/><path class="b" d="M119.16022,21.46789a2.3033,2.3033,0,1,1-2.30342,2.30319A2.30494,2.30494,0,0,1,119.16022,21.46789Zm-1.98569,6.35389h3.97138V40.68865h-3.97138Z"/><path class="b" d="M130.67662,27.504c3.97115,0,7.14821,2.64759,7.14821,6.75116s-3.17706,6.75116-7.14821,6.75116c-3.97138,0-7.14821-2.64759-7.14821-6.75116S126.70524,27.504,130.67662,27.504Zm0,10.00754a3.00932,3.00932,0,0,0,3.17706-3.25637,3.178,3.178,0,1,0-6.35412,0A3.00932,3.00932,0,0,0,130.67662,37.51159Z"/><path class="b" d="M140.20687,20.67357H144.178V40.68865h-3.97115Z"/><path class="b" d="M153.70873,27.504c3.97115,0,7.14821,2.64759,7.14821,6.75116s-3.17706,6.75116-7.14821,6.75116c-3.97138,0-7.14844-2.64759-7.14844-6.75116S149.73735,27.504,153.70873,27.504Zm0,10.00754a3.00926,3.00926,0,0,0,3.17683-3.25637,3.17791,3.17791,0,1,0-6.35389,0A3.00932,3.00932,0,0,0,153.70873,37.51159Z"/><path class="b" d="M176.68843,39.60326c0,4.84479-2.46228,7.4395-7.4395,7.4395a10.07543,10.07543,0,0,1-6.45987-1.8797l2.19743-3.283a6.3185,6.3185,0,0,0,4.18312,1.668c2.40917,0,3.54767-1.32379,3.54767-3.15039V39.15311h-.05311a4.49612,4.49612,0,0,1-3.627,1.6944c-3.81252,0-6.32768-2.75334-6.32768-6.64518,0-3.41524,2.2241-6.69828,5.87752-6.69828a5.25653,5.25653,0,0,1,4.39487,2.01213h.05288v-1.6944h3.65365ZM169.85795,37.353a3.17706,3.17706,0,1,0-3.17706-3.17706A3.20311,3.20311,0,0,0,169.85795,37.353Z"/><path class="b" d="M181.90313,21.46789a2.3033,2.3033,0,1,1-2.30319,2.30319A2.30494,2.30494,0,0,1,181.90313,21.46789Zm-1.98546,6.35389h3.97115V40.68865h-3.97115Z"/><path class="b" d="M194.02855,31.60786a2.836,2.836,0,0,0-2.30319-1.08561c-.6619,0-1.45622.29129-1.45622,1.05894,0,1.90637,6.69828.29129,6.69828,5.18919,0,3.28281-3.17706,4.236-5.9304,4.236a7.08168,7.08168,0,0,1-5.05676-1.74728l2.40917-2.674a3.44924,3.44924,0,0,0,2.80645,1.40311c.90008,0,1.80016-.23818,1.80016-.92652,0-2.065-6.69805-.31773-6.69805-5.21563,0-3.01819,2.70046-4.342,5.4007-4.342a6.49959,6.49959,0,0,1,4.7657,1.6944Z"/><path class="b" d="M207.76882,30.99884H204.274v4.28888c0,1.37667.15886,2.38274,1.8797,2.38274a2.85637,2.85637,0,0,0,1.61508-.37061v3.30948a8.22235,8.22235,0,0,1-2.77978.397c-2.64759,0-4.68616-1.08538-4.68616-3.89183v-6.1157h-2.5416V27.82178h2.5416V24.00949H204.274v3.81228h3.49479Z"/><path class="b" d="M217.06112,31.60786a2.836,2.836,0,0,0-2.30319-1.08561c-.6619,0-1.45622.29129-1.45622,1.05894,0,1.90637,6.69828.29129,6.69828,5.18919,0,3.28281-3.17706,4.236-5.9304,4.236a7.08168,7.08168,0,0,1-5.05676-1.74728l2.40917-2.674a3.44956,3.44956,0,0,0,2.80645,1.40311c.90008,0,1.80016-.23818,1.80016-.92652,0-2.065-6.69805-.31773-6.69805-5.21563,0-3.01819,2.70047-4.342,5.40093-4.342a6.499,6.499,0,0,1,4.76547,1.6944Z"/></svg>