<svg xmlns="http://www.w3.org/2000/svg" viewBox="0 0 241 56.73876"><defs><style>.a,.b{fill:#2d2d2d;}.b{opacity:0.5;}</style></defs><title>logo-full_2D2D2D_240x57</title><path class="a" d="M68.8605,14.2396h1.0199l5.17207,7.43991h.024V14.2396h.792v8.496h-1.02L69.6765,15.2955h-.024v7.44005h-.792Z"/><path class="a" d="M82.03644,14.02356a4.25357,4.25357,0,0,1,4.39193,4.46394,4.39258,4.39258,0,1,1-8.784,0A4.2536,4.2536,0,0,1,82.03644,14.02356Zm0,8.2079a3.50919,3.50919,0,0,0,3.59993-3.744,3.60277,3.60277,0,1,0-7.2,0A3.5093,3.5093,0,0,0,82.03644,22.23146Z"/><path class="a" d="M88.2044,14.2396h2.232c.672,0,3.024,0,3.024,2.232a2.14753,2.14753,0,0,1-2.172,2.184l2.47187,4.08h-.89987l-2.388-4.032h-1.476v4.032h-.792Zm.792,3.744h1.68c1.66787,0,1.99193-.924,1.99193-1.512s-.32406-1.512-1.99193-1.512h-1.68Z"/><path class="a" d="M97.276,14.95959H94.37208v-.72h6.5999v.72H98.068v7.776h-.792Z"/><path class="a" d="M102.27992,14.2396h.792v3.744h4.752v-3.744h.792v8.496h-.792v-4.032h-4.752v4.032h-.792Z"/><path class="a" d="M121.05958,21.40346a3.692,3.692,0,0,1-3.156,1.548,4.25349,4.25349,0,0,1-4.39193-4.46394,4.25357,4.25357,0,0,1,4.39193-4.46394,3.53617,3.53617,0,0,1,2.928,1.332l-.648.5401a2.709,2.709,0,0,0-2.28-1.15206,3.50926,3.50926,0,0,0-3.59993,3.744,3.50919,3.50919,0,0,0,3.59993,3.744,3.06229,3.06229,0,0,0,2.508-1.32Z"/><path class="a" d="M125.11545,14.2396h.816l3.57607,8.496h-.888l-.924-2.256h-4.5l-.96,2.256h-.828Zm.37207.864-1.98007,4.656h3.9Z"/><path class="a" d="M130.73146,14.2396h2.232c.672,0,3.024,0,3.024,2.232a2.14753,2.14753,0,0,1-2.172,2.184l2.47187,4.08h-.89987l-2.388-4.032h-1.476v4.032h-.792Zm.792,3.744h1.68c1.66787,0,1.99193-.924,1.99193-1.512s-.32406-1.512-1.99193-1.512h-1.68Z"/><path class="a" d="M141.68729,14.02356a4.25357,4.25357,0,0,1,4.39193,4.46394,4.39258,4.39258,0,1,1-8.784,0A4.2536,4.2536,0,0,1,141.68729,14.02356Zm0,8.2079a3.50919,3.50919,0,0,0,3.59993-3.744,3.60277,3.60277,0,1,0-7.2,0A3.5093,3.5093,0,0,0,141.68729,22.23146Z"/><path class="a" d="M147.85525,14.2396h.792v7.776h3.96v.72h-4.752Z"/><path class="a" d="M153.85519,14.2396h.792v8.496h-.792Z"/><path class="a" d="M156.975,14.2396h1.02l5.17193,7.43991h.024V14.2396h.792v8.496h-1.02L157.791,15.2955h-.024v7.44005h-.792Z"/><path class="a" d="M168.915,14.2396h.816l3.57593,8.496h-.888l-.924-2.256h-4.5l-.95989,2.256h-.828Zm.37192.864-1.97993,4.656h3.9Z"/><path class="a" d="M177.87878,21.16356a2.14746,2.14746,0,0,0,1.94406,1.06791,1.72974,1.72974,0,0,0,1.90791-1.66787c0-2.376-4.37993-.984-4.37993-4.212a2.44926,2.44926,0,0,1,2.72406-2.328,2.7611,2.7611,0,0,1,2.31584,1.068l-.684.49194a1.904,1.904,0,0,0-1.65587-.84c-1.02,0-1.90806.528-1.90806,1.608,0,2.556,4.37993,1.02,4.37993,4.212a2.43267,2.43267,0,0,1-2.6399,2.38786,3.19158,3.19158,0,0,1-2.76007-1.28394Z"/><path class="a" d="M188.16263,14.02356a4.2536,4.2536,0,0,1,4.39208,4.46394,4.39258,4.39258,0,1,1-8.784,0A4.25357,4.25357,0,0,1,188.16263,14.02356Zm0,8.2079a3.50922,3.50922,0,0,0,3.60008-3.744,3.60277,3.60277,0,1,0-7.2,0A3.50919,3.50919,0,0,0,188.16263,22.23146Z"/><path class="a" d="M201.32657,21.40346a3.692,3.692,0,0,1-3.156,1.548,4.25349,4.25349,0,0,1-4.39193-4.46394,4.25357,4.25357,0,0,1,4.39193-4.46394,3.53644,3.53644,0,0,1,2.9281,1.332l-.648.5401a2.70944,2.70944,0,0,0-2.28013-1.15206,3.50926,3.50926,0,0,0-3.59993,3.744,3.50919,3.50919,0,0,0,3.59993,3.744,3.06229,3.06229,0,0,0,2.508-1.32Z"/><path class="a" d="M202.77854,14.2396h.792v8.496h-.792Z"/><path class="a" d="M205.89839,14.2396h5.19608v.72h-4.40408v3.024h4.128v.72h-4.128v3.312h4.596v.72h-5.388Z"/><path class="a" d="M214.89829,14.95959h-2.90395v-.72h6.5999v.72h-2.90395v7.776h-.792Z"/><path class="a" d="M221.7861,19.07561l-3.12-4.836h.948l2.568,4.032,2.6279-4.032h.888l-3.12,4.836v3.65994h-.792Z"/><path class="a" d="M233.10878,17.04753a2.39651,2.39651,0,0,1,2.50643,2.916,3.3323,3.3323,0,0,1-3.32562,2.9161,2.39653,2.39653,0,0,1-2.50629-2.9161A3.33226,3.33226,0,0,1,233.10878,17.04753Zm-.72808,5.18393a2.54725,2.54725,0,0,0,2.51453-2.268,1.83316,1.83316,0,0,0-1.8774-2.268,2.54736,2.54736,0,0,0-2.51453,2.268A1.83311,1.83311,0,0,0,232.3807,22.23146Z"/><path class="a" d="M237.92947,17.83953H236.7774l.0911-.648h1.15192l.2545-1.812a1.9446,1.9446,0,0,1,1.91731-1.8599,1.86683,1.86683,0,0,1,.80776.144l-.23166.624a1.31277,1.31277,0,0,0-.63105-.12c-.66012,0-1.03942.47994-1.1794,1.476l-.21749,1.548h1.29609l-.0911.648h-1.29595l-.68774,4.896h-.72Z"/><path class="a" d="M75.19945,27.68786h2.67226L84.252,42.35427H80.60622L79.34249,39.247H73.64574l-1.22217,3.10723H68.8605Zm1.24286,4.26734-1.78145,4.55733h3.58376Z"/><path class="a" d="M85.32886,32.28656H88.312V33.6539h.04137a3.26475,3.26475,0,0,1,2.94156-1.616c3.14879,0,3.72875,2.07161,3.72875,4.76456v5.55176H91.91642V37.424c0-1.16011-.02069-2.65157-1.61577-2.65157-1.616,0-1.86456,1.26373-1.86456,2.56865v5.01317H85.32886Z"/><path class="a" d="M106.74815,40.61419a5.46923,5.46923,0,0,1-4.24666,1.98868c-3.10723,0-5.59313-2.07161-5.59313-5.28246s2.4859-5.28246,5.59313-5.28246c2.90018,0,4.72319,2.07161,4.72319,5.28246v.97374h-7.2089a2.32106,2.32106,0,0,0,2.34072,1.94713,2.65149,2.65149,0,0,0,2.2166-1.22217Zm-2.63071-4.433a1.86241,1.86241,0,0,0-1.90593-1.90593,2.073,2.073,0,0,0-2.19573,1.90593Z"/><path class="a" d="M114.80594,35.249a2.21881,2.21881,0,0,0-1.80213-.84944c-.5179,0-1.13942.22792-1.13942.82857,0,1.49165,5.24109.22792,5.24109,4.06029,0,2.56865-2.4859,3.31447-4.64026,3.31447a5.54108,5.54108,0,0,1-3.95668-1.36716l1.88506-2.0923a2.69936,2.69936,0,0,0,2.19591,1.09787c.70427,0,1.40854-.18637,1.40854-.725,0-1.61577-5.24091-.24861-5.24091-4.081,0-2.36159,2.113-3.3974,4.226-3.3974a5.08519,5.08519,0,0,1,3.72875,1.32579Z"/><path class="a" d="M125.55705,34.77245h-2.73432V38.1283c0,1.07718.1243,1.86438,1.47078,1.86438a2.23472,2.23472,0,0,0,1.26354-.29V42.2922a6.4336,6.4336,0,0,1-2.175.31067c-2.07161,0-3.66669-.84926-3.66669-3.04517V34.77245h-1.98868v-2.4859h1.98868V29.30363h3.10742v2.98293h2.73432Z"/><path class="a" d="M130.2385,26.69342V33.6539h.04137a2.91172,2.91172,0,0,1,2.81743-1.616c3.14861,0,3.72875,2.07161,3.72875,4.76456v5.55176h-3.10742V37.424c0-1.16011-.02069-2.65157-1.61577-2.65157-1.61577,0-1.86438,1.26373-1.86438,2.56865v5.01317h-3.10723V26.69342Z"/><path class="a" d="M148.55055,40.61419a5.46977,5.46977,0,0,1-4.24666,1.98868c-3.10742,0-5.59313-2.07161-5.59313-5.28246s2.48572-5.28246,5.59313-5.28246c2.90018,0,4.723,2.07161,4.723,5.28246v.97374H141.818a2.32138,2.32138,0,0,0,2.34091,1.94713,2.65117,2.65117,0,0,0,2.21642-1.22217Zm-2.63089-4.433a1.86237,1.86237,0,0,0-1.90575-1.90593,2.07313,2.07313,0,0,0-2.19591,1.90593Z"/><path class="a" d="M156.60835,35.249a2.21916,2.21916,0,0,0-1.80232-.84944c-.5179,0-1.13924.22792-1.13924.82857,0,1.49165,5.24091.22792,5.24091,4.06029,0,2.56865-2.48572,3.31447-4.64026,3.31447a5.54164,5.54164,0,0,1-3.95668-1.36716l1.88525-2.0923a2.69877,2.69877,0,0,0,2.19573,1.09787c.70445,0,1.40872-.18637,1.40872-.725,0-1.61577-5.24109-.24861-5.24109-4.081,0-2.36159,2.113-3.3974,4.226-3.3974a5.08519,5.08519,0,0,1,3.72875,1.32579Z"/><path class="a" d="M162.09768,27.31494a1.80223,1.80223,0,1,1-1.80232,1.80213A1.80351,1.80351,0,0,1,162.09768,27.31494ZM160.544,32.28656h3.10742V42.35427H160.544Z"/><path class="a" d="M171.10872,32.03795c3.10723,0,5.59313,2.07161,5.59313,5.28246s-2.4859,5.28246-5.59313,5.28246c-3.10742,0-5.59313-2.07161-5.59313-5.28246S168.0013,32.03795,171.10872,32.03795Zm0,7.83042a2.35465,2.35465,0,0,0,2.4859-2.548,2.48665,2.48665,0,1,0-4.97179,0A2.35465,2.35465,0,0,0,171.10872,39.86837Z"/><path class="a" d="M178.56568,26.69342h3.10723V42.35427h-3.10723Z"/><path class="a" d="M189.13025,32.03795c3.10723,0,5.59313,2.07161,5.59313,5.28246s-2.4859,5.28246-5.59313,5.28246c-3.10742,0-5.59331-2.07161-5.59331-5.28246S186.02283,32.03795,189.13025,32.03795Zm0,7.83042a2.3546,2.3546,0,0,0,2.48572-2.548,2.48656,2.48656,0,1,0-4.97161,0A2.35465,2.35465,0,0,0,189.13025,39.86837Z"/><path class="a" d="M207.11076,41.505c0,3.79082-1.92662,5.82105-5.82105,5.82105a7.88355,7.88355,0,0,1-5.05454-1.47078l1.71939-2.56883a4.94392,4.94392,0,0,0,3.27309,1.3051c1.88506,0,2.77588-1.03581,2.77588-2.465v-.97374H203.962a3.518,3.518,0,0,1-2.83794,1.32579c-2.98311,0-4.95111-2.15436-4.95111-5.19953,0-2.67226,1.74025-5.24109,4.59888-5.24109a4.113,4.113,0,0,1,3.43877,1.5744h.04137V32.28656h2.85881Zm-5.34452-1.76076a2.4859,2.4859,0,1,0-2.4859-2.4859A2.50628,2.50628,0,0,0,201.76624,39.74425Z"/><path class="a" d="M211.191,27.31494a1.80223,1.80223,0,1,1-1.80213,1.80213A1.80351,1.80351,0,0,1,211.191,27.31494Zm-1.55353,4.97161h3.10723V42.35427h-3.10723Z"/><path class="a" d="M220.67858,35.249a2.21905,2.21905,0,0,0-1.80213-.84944c-.5179,0-1.13942.22792-1.13942.82857,0,1.49165,5.24109.22792,5.24109,4.06029,0,2.56865-2.4859,3.31447-4.64026,3.31447a5.54108,5.54108,0,0,1-3.95668-1.36716l1.88506-2.0923a2.69886,2.69886,0,0,0,2.19591,1.09787c.70427,0,1.40854-.18637,1.40854-.725,0-1.61577-5.24091-.24861-5.24091-4.081,0-2.36159,2.113-3.3974,4.22579-3.3974a5.08562,5.08562,0,0,1,3.72894,1.32579Z"/><path class="a" d="M231.42969,34.77245h-2.7345V38.1283c0,1.07718.1243,1.86438,1.47078,1.86438a2.235,2.235,0,0,0,1.26373-.29V42.2922a6.4336,6.4336,0,0,1-2.175.31067c-2.07161,0-3.66669-.84926-3.66669-3.04517V34.77245h-1.98868v-2.4859h1.98868V29.30363h3.10723v2.98293h2.7345Z"/><path class="a" d="M238.70047,35.249a2.21905,2.21905,0,0,0-1.80213-.84944c-.5179,0-1.13942.22792-1.13942.82857,0,1.49165,5.24109.22792,5.24109,4.06029,0,2.56865-2.4859,3.31447-4.64026,3.31447a5.54108,5.54108,0,0,1-3.95668-1.36716l1.88506-2.0923a2.69911,2.69911,0,0,0,2.19591,1.09787c.70427,0,1.40854-.18637,1.40854-.725,0-1.61577-5.24091-.24861-5.24091-4.081,0-2.36159,2.113-3.3974,4.226-3.3974a5.08519,5.08519,0,0,1,3.72875,1.32579Z"/><path class="a" d="M2.77706,16.17166c-.06618.1326-.12738.26993-.18845.40776a.4416.4416,0,0,1,.03564-.08683Z"/><path class="a" d="M41.95315,48.21967a23.50991,23.50991,0,0,1-2.27749,1.38075v-.005A24.60756,24.60756,0,0,0,41.95315,48.21967Z"/><path class="a" d="M45.3771,45.3716v.005a23.759,23.759,0,0,1-2.70042,2.32861A24.90472,24.90472,0,0,0,45.3771,45.3716Z"/><path class="b" d="M40.40939,54.45095h-.50951c.03054-.01518.06618-.02538.09678-.04055.04584-.0204.09678-.046.14268-.06643.08148-.03558.15792-.06618.23435-.107Z"/><path class="a" d="M32.416,21.25009v3.71573a18.92269,18.92269,0,0,0-1.99158-.29875v1.86287c-.64727-.06331-1.31373-.096-1.99087-.096-.67785,0-1.34433.03272-1.99158.096V24.66707a18.894,18.894,0,0,0-1.99158.29875V21.25009a18.89407,18.89407,0,0,1,1.99158-.29872V19.08854c.64725-.06331,1.31373-.096,1.99087-.096.67785,0,1.3436.03272,1.99158.096v1.86283A18.92278,18.92278,0,0,1,32.416,21.25009Z"/><path class="a" d="M24.77765,28.49166q-.13.02276-.25985.04578c-.06624.0102-.13758.02538-.20382.03582C24.46686,28.54241,24.61974,28.51206,24.77765,28.49166Z"/><path class="a" d="M25.491,28.38468c-.23945.02538-.479.0612-.71332.107q.14526-.02314.29039-.04578c.08154-.01542.16308-.02562.24965-.03582C25.3789,28.39986,25.43488,28.39488,25.491,28.38468Z"/><path class="a" d="M28.6805,28.1961h-.49421c.08148-.005.163-.005.24455-.005S28.599,28.19113,28.6805,28.1961Z"/><path class="a" d="M29.54154,28.22148c-.056,0-.11718-.005-.17322-.005h-.0102c-.07134-.00522-.14268-.00522-.20892-.00522a.25383.25383,0,0,0-.06114-.005,1.081,1.081,0,0,1-.12738-.00522C29.15431,28.20108,29.34793,28.2063,29.54154,28.22148Z"/><path class="a" d="M31.21784,28.36428a.30614.30614,0,0,0-.06624-.00522,2.7772,2.7772,0,0,0-.28529-.0306A2.75947,2.75947,0,0,1,31.21784,28.36428Z"/><path class="a" d="M32.63939,28.58843c-.18348-.0408-.36689-.0714-.55541-.09678.13248.0204.25985.04578.38723.06618Z"/><path class="a" d="M33.29151,28.731c-.214-.05075-.428-.10175-.65212-.14255.09168.0204.18845.0408.28019.0612a.93929.93929,0,0,1,.11718.02538C33.1234,28.69541,33.21,28.71059,33.29151,28.731Z"/><path class="a" d="M2.45613,16.86452q-.0765.16047-.13758.32118h-.0051C2.35929,17.07848,2.40513,16.9715,2.45613,16.86452Z"/><path class="a" d="M2.77706,16.17166c-.06618.1326-.12738.26993-.18845.40776a.4416.4416,0,0,1,.03564-.08683c.03054-.07115.06114-.14255.09678-.214A1.07669,1.07669,0,0,1,2.77706,16.17166Z"/><path class="a" d="M3.16939,15.382c-.03564.06618-.06624.12738-.09678.19355l-.0306.0612c-.08658.158-.163.31571-.23945.47891.11208-.24978.23435-.48911.36173-.73366Z"/><path class="a" d="M12.74817,46.5486c-.43313-.37193-.8509-.76426-1.25847-1.172v-.005C11.89727,45.77911,12.315,46.17144,12.74817,46.5486Z"/><path class="a" d="M56.3526,33.81353a5.89508,5.89508,0,0,1-.12231.61151h-.00507C56.27106,34.22116,56.31693,34.0174,56.3526,33.81353Z"/><path class="a" d="M4.4684,28.42962a23.4237,23.4237,0,0,0,.12228,2.39976L.25985,32.246A27.70212,27.70212,0,0,1,0,28.42962a28.31154,28.31154,0,0,1,1.72724-9.76723l4.4327.917A23.6911,23.6911,0,0,0,4.4684,28.42962Z"/><path class="a" d="M52.0109,32.7155l-.14778-.0612L40.0476,27.7682l-.04584-.0204-2.52714-1.03942V21.87825l2.52714-.69809,10.00675-2.75129.18342-.051,3.47992-.95782.8764-.23958-.19878-.45851c-.06618-.153-.13751-.30053-.20885-.44831-.06114-.13758-.12738-.27018-.19362-.40253-.08154-.16818-.163-.33113-.24965-.49433a28.44267,28.44267,0,0,0-50.52795,0V15.382c-.03564.06618-.06624.12738-.09678.19355l-.0306.0612c-.08658.158-.163.31571-.23945.47891a.27243.27243,0,0,0-.0255.056c-.06618.1326-.12738.26993-.18845.40776a2.86491,2.86491,0,0,0-.13248.28511q-.0765.16047-.13758.32118l.87634.23933,3.47482.95806.18852.05075L16.865,21.18017l2.5272.69809v4.83013L16.865,27.7478,5.00367,32.65928l-.15288.0612L.64225,34.4326c.04074.214.09168.42791.14268.63689.05094.214.10188.42791.15792.63689a28.48825,28.48825,0,0,0,14.893,18.21989c.21905.107.43811.209.65722.31073.15792.07638.31589.14778.47387.21918a28.375,28.375,0,0,0,2.88377,1.08519c.0612.0204.11718.0408.17838.056.21905.06643.43811.1326.66232.1938a4.52546,4.52546,0,0,0,1.86482-1.335A19.51187,19.51187,0,0,0,24.26814,52.036c.47387-.73889.98338-1.5539,1.59476-2.41519a26.70816,26.70816,0,0,1,6.1039-6.25665c.10188.0102.19872.01518.30065.02538l.29039.0306.29039.0306c.21912.0204.43823.051.64709.07638.15288.0204.30065.0408.44837.0612.17322.02538.34649.056.51461.0816.08154.01518.16812.03035.24965.04578s.163.0306.24455.04578c.08154.01542.163.0306.23952.046.07638.01518.15282.0306.22415.04578a.60458.60458,0,0,1,.09168.0204c.10194.0204.20382.04578.30065.06618.24965.056.48911.11718.72346.17838.0663.0204.13758.0408.20382.0612q.08406.02276.16812.04578c.0612.0204.12228.03558.17838.056.04074.0102.07638.02562.11208.03582q.17577.05336.33623.107c.0561.0204.107.04055.16308.056.28025.102.54521.20375.78976.31073l.107.046c.13758.061.27005.12215.40253.18833l-.36683-2.43036s1.83415-1.96141,3.23026-1.96141V38.02454c0-1.08519-1.13116-2.70552-4.38176-3.80091v-.71849s.83044-.89661,1.36035-.89661v-1.172a6.79388,6.79388,0,0,0-1.36035-1.08V28.1961l13.58344,8.13173c-.07128.22415-.15288.44333-.23435.65729l-.0153.0306c-.0153.03558-.0255.07638-.04074.112-.08154.209-.16812.418-.25475.62669A24.03423,24.03423,0,0,1,48.93855,40.837q-.18342.30563-.38213.61126c-.25985.40253-.535.79486-.82036,1.18222-.14268.19355-.28529.38213-.43307.57071-.23945.30551-.484.60106-.73876.89661-.377.43313-.77446.861-1.18713,1.27377v.005a23.759,23.759,0,0,1-2.70042,2.32861c-.23945.17838-.47891.34631-.72352.51448a23.50991,23.50991,0,0,1-2.27749,1.38075v-.005l-.20892-1.386L39.319,47.19568a26.65668,26.65668,0,0,0-4.67215,4.3868c-.52991.63191-.99352,1.25337-1.41135,1.84448-.19872.28013-.38723.56051-.56045.82546-.05094.07115-.09174.13758-.13758.20375-.54515.83044-1.01392,1.6049-1.46739,2.28259a28.44762,28.44762,0,0,0,4.555-.79486c.36689-.09678.73372-.19878,1.10062-.31073.39227-.11718.7846-.24455,1.17183-.38736.49931-.17315.98848-.36671,1.47249-.56548a.18529.18529,0,0,0,.056-.02562c.15792-.06618.31589-.13235.47387-.20375.03054-.01518.06618-.02538.09678-.04055.04584-.0204.09678-.046.14268-.06643.08148-.03558.15792-.06618.23435-.107a28.49327,28.49327,0,0,0,15.5502-18.53062c.11208-.42293.214-.84586.30059-1.279ZM17.35925,48.47443l-.17328,1.126c-.07638-.04578-.158-.08658-.23435-.12738q-.749-.41273-1.46739-.87124c-.479-.31073-.94768-.63689-1.40115-.97822-.45857-.34133-.90184-.69809-1.33491-1.075-.43313-.37193-.8509-.76426-1.25847-1.172v-.005a22.54,22.54,0,0,1-1.56422-1.7171c-.24965-.30053-.484-.60106-.71326-.912-.28535-.38711-.56561-.77944-.82546-1.17674-.13248-.19878-.265-.40253-.38723-.60653-.25475-.40751-.49421-.82546-.71836-1.24815q-.50444-.95533-.93244-1.95668c-.07638-.18833-.15288-.37193-.22415-.56026a2.93213,2.93213,0,0,1-.12738-.33138.0715.0715,0,0,1-.0102-.03035.1819.1819,0,0,0-.0204-.046c-.056-.14778-.11208-.29555-.15792-.44831L19.39218,28.1961v2.16043a6.79259,6.79259,0,0,0-1.36041,1.08v1.172c.52985,0,1.36041.90159,1.36041.90159v.71351c-3.25583,1.09539-4.38182,2.71572-4.38182,3.80091v2.60874c1.396,0,3.23033,1.96141,3.23033,1.96141L17.87385,45.025a.78573.78573,0,0,1,.11208-.051c.163-.08135.34133-.163.52481-.23933.056-.0204.11208-.04578.16805-.06618.25985-.102.52991-.19878.82036-.29555.03564-.0102.07128-.02538.107-.03582.09168-.03035.18852-.061.28535-.08658A17.37818,17.37818,0,0,0,17.35925,48.47443ZM35.14613,29.2609a1.32177,1.32177,0,0,0-.18342-.0612q-.16056-.05336-.33629-.107c-.0204-.005-.04074-.01518-.056-.0204-.16812-.05075-.33629-.10175-.50951-.14778h-.01014c-.0102-.005-.0255-.005-.0408-.01q-.17577-.05374-.35153-.0918-.18342-.05336-.36689-.0918c-.08154-.0204-.16812-.03558-.25475-.056a.93929.93929,0,0,0-.11718-.02538c-.09174-.0204-.18852-.0408-.28019-.0612l-.16818-.0306c-.12738-.0204-.25475-.04578-.38723-.06618a.20445.20445,0,0,0-.07638-.01542c-.13248-.0204-.27005-.0408-.40763-.0612-.12738-.02015-.25475-.03558-.38213-.05075a.30614.30614,0,0,0-.06624-.00522,2.7772,2.7772,0,0,0-.28529-.0306h-.0051a.11493.11493,0,0,0-.0408-.005c-.0255-.005-.05094-.005-.07644-.0102-.05094-.00522-.09678-.0102-.14772-.01518a1.91259,1.91259,0,0,0-.29555-.02562c-.09168-.0102-.17832-.01518-.265-.0204-.05094-.005-.09678-.005-.14268-.0102-.11718-.0102-.23435-.0204-.35153-.0204-.056,0-.11718-.005-.17322-.005h-.0102c-.07134-.00522-.14268-.00522-.20892-.00522a.25383.25383,0,0,0-.06114-.005,1.081,1.081,0,0,1-.12738-.00522,2.63312,2.63312,0,0,0-.28019-.005h-.49421c-.17328,0-.34649,0-.51461.0102-.0255,0-.0459.005-.0765.005-.09168.00522-.18845.00522-.28019.01542-.18852.005-.37193.01518-.56045.0306a1.5021,1.5021,0,0,0-.15288.0102c-.163.01518-.33113.0306-.49421.04578-.14778.01518-.29555.0306-.43817.051-.06114.005-.11718.01518-.17832.0204-.0561.0102-.11208.01518-.17328.02538-.08658.0102-.16812.0204-.24965.03582q-.14517.02276-.29039.04578-.13.02276-.25985.04578c-.06624.0102-.13758.02538-.20382.03582-.06114.01-.11718.02538-.17832.03558-.12228.0204-.23945.04578-.35159.0714-.04584.01-.09168.0204-.13248.03035-.04074.0102-.07638.01542-.11718.02562a2.22666,2.22666,0,0,0-.24965.061.404.404,0,0,0-.07128.0204.11644.11644,0,0,0-.0561.01542c-.12228.0306-.24455.0612-.36683.09678a.08751.08751,0,0,0-.05094.01518c-.07134.01542-.14268.03582-.20892.05623-.08148.0204-.163.04578-.23945.07115-.0204.00522-.0408.01542-.056.0204-.08664.02562-.17322.05623-.25985.0816s-.16812.056-.25475.08658V18.46967A17.49066,17.49066,0,0,1,23.993,17.848a22.4589,22.4589,0,0,1,8.88075,0,17.71675,17.71675,0,0,1,2.27239.62171ZM31.4624,13.64974V12.6663c-.20892-.0306-.42293-.056-.63689-.07638a22.52594,22.52594,0,0,0-4.78429,0c-.214.0204-.428.04578-.63689.07638v.98344c-3.23026.43811-5.95618,1.5539-7.37257,3.04162v1.8191l1.17183,1.17177.18858.18858v.42791L8.32561,15.387c.13758-.20873.27515-.41771.41777-.62146.158-.22415.316-.44856.479-.66251.17322-.23435.34649-.45851.52991-.68266.17832-.22415.36173-.44831.55535-.66226.158-.18858.32609-.37218.49421-.55553q.33632-.36683.68789-.71824a23.94041,23.94041,0,0,1,33.88739,0q.35153.35153.68776.71824c.16818.18335.33636.367.49427.55553.19362.214.377.43811.55535.66226.18348.22415.35663.44831.52991.68266.17832.22938.34133.46373.50441.69809.13758.19355.265.38711.39233.58091H48.536l-11.0614,4.9167v-.42791s.07128-.0714.18335-.18858c.27515-.27018.79486-.79486,1.177-1.17177v-1.8191C37.41342,15.20364,34.69266,14.08785,31.4624,13.64974Z"/><path class="a" d="M2.77706,16.17166c-.06618.1326-.12738.26993-.18845.40776a.4416.4416,0,0,1,.03564-.08683Z"/><path class="a" d="M3.16939,15.382c-.03564.06618-.06624.12738-.09678.19355.03054-.06618.06114-.12738.09168-.19355Z"/><path class="a" d="M48.54112,15.382H48.536c-.12738-.1938-.25475-.39233-.38723-.58091C48.28637,14.99467,48.41374,15.18822,48.54112,15.382Z"/><path class="a" d="M39.37,54.68033c-.484.20375-.97318.39731-1.47249.56548C38.3968,55.07266,38.886,54.87911,39.37,54.68033Z"/><path class="a" d="M39.99666,54.4104c-.0306.01518-.056.02538-.08658.04055a.01769.01769,0,0,1-.0102.00522q-.237.10673-.47387.19853c.15792-.06618.31589-.13235.47387-.20375C39.93042,54.43577,39.96606,54.42557,39.99666,54.4104Z"/><path class="a" d="M56.8611,28.42962a28.43591,28.43591,0,0,1-.25475,3.81111L52.27043,30.8244a23.33025,23.33025,0,0,0,.12228-2.39479,23.6968,23.6968,0,0,0-1.69154-8.85519l4.4378-.91726A28.35892,28.35892,0,0,1,56.8611,28.42962Z"/><line class="a" x1="55.13897" y1="18.65725" x2="50.70115" y2="19.57436"/><line class="a" x1="6.15995" y1="19.57946" x2="1.72723" y2="18.66235"/><line class="a" x1="56.60635" y1="32.24074" x2="52.27044" y2="30.82431"/><line class="a" x1="4.59066" y1="30.8294" x2="0.25984" y2="32.24583"/></svg>